<svg width="201" height="200" viewBox="0 0 201 200" fill="none" xmlns="http://www.w3.org/2000/svg">
<path fill-rule="evenodd" clip-rule="evenodd" d="M100.959 200C156.209 200 200.959 155.25 200.959 100C200.959 44.7504 156.209 0 100.959 0C45.7094 0 0.958984 44.7504 0.958984 100C0.958984 155.25 45.7094 200 100.959 200ZM93.0934 113.387C86.4796 124.834 79.7386 133.61 72.8704 139.715C66.2566 145.82 59.6427 148.873 53.0289 148.873C48.9589 148.873 46.9238 146.202 46.9238 140.86C46.9238 137.807 47.4326 134.373 48.4501 130.557C49.4676 126.742 51.1211 122.672 53.4105 118.347C53.9192 117.838 54.428 117.838 54.9367 118.347C55.6999 118.856 56.0814 119.619 56.0814 120.637C54.0464 125.215 53.6648 129.031 54.9367 132.084C56.2086 134.882 58.2436 136.281 61.0418 136.281C65.3662 136.281 69.945 134.119 74.7782 129.794C79.8658 125.215 85.3349 117.711 91.1856 107.282C89.405 100.922 88.2603 94.9444 87.7515 89.3481C87.2427 83.7518 86.734 79.0458 86.2252 75.2301C85.9708 71.1601 85.5893 67.9804 85.0805 65.691C84.8261 63.4016 84.063 62.2569 82.7911 62.2569C81.0105 62.2569 79.1026 63.7831 77.0676 66.8357C75.0326 69.6338 73.3791 72.6863 72.1072 75.9933C71.5985 76.502 70.8354 76.6292 69.8178 76.3748C69.0547 76.1205 68.8003 75.6117 69.0547 74.8486C69.5635 72.5592 70.581 70.1426 72.1072 67.5988C73.8879 64.8006 75.7957 62.2569 77.8307 59.9675C80.1201 57.4237 82.4096 55.3886 84.699 53.8624C87.2427 52.0817 89.5321 51.1914 91.5672 51.1914C93.3478 51.1914 94.6197 52.3361 95.3828 54.6255C96.4003 56.9149 97.0363 59.9674 97.2907 63.7831C97.7994 67.3444 98.181 71.5416 98.4354 76.3748C98.6897 80.9536 99.1985 85.7868 99.9616 90.8744C106.067 79.4274 112.935 70.0154 120.566 62.6384C128.452 55.0071 135.956 51.1914 143.079 51.1914C146.64 51.1914 149.311 52.2089 151.092 54.2439C153.127 56.0246 154.144 58.314 154.144 61.1121C154.144 63.4016 153.381 66.3269 151.855 69.8882C150.583 73.1951 149.184 76.2476 147.658 79.0458C146.894 79.5546 146.131 79.6817 145.368 79.4274C144.859 78.9186 144.605 78.2827 144.605 77.5195C147.149 73.1951 147.912 69.5066 146.894 66.4541C145.877 63.4016 143.333 61.8753 139.263 61.8753C132.649 61.8753 126.29 64.8006 120.185 70.6513C114.334 76.502 108.102 85.5324 101.488 97.7426C104.137 108.338 107.361 117.115 111.159 124.071L111.159 124.071C111.738 125.131 112.33 126.15 112.936 127.126C114.403 129.365 115.87 131.264 117.337 132.824L110.938 144.521C109.341 143.127 107.718 141.399 106.068 139.336C105.296 138.371 104.542 137.354 103.805 136.284L104.518 135.095L103.804 136.281C99.6844 130.297 96.1144 122.666 93.0934 113.387ZM147.281 124.073C146.518 123.564 145.755 123.564 144.991 124.073C144.13 125.365 143.24 126.598 142.32 127.773L144.315 132.188C145.742 130.246 146.985 128.304 148.044 126.362C148.298 125.345 148.044 124.582 147.281 124.073ZM132.805 136.849C134.116 136.161 135.38 135.21 136.595 133.994C137.011 133.613 137.421 133.223 137.827 132.823L139.863 137.339C138.319 138.876 136.721 140.304 135.069 141.626C134.757 141.876 134.444 142.121 134.132 142.363L132.805 136.849ZM120.569 148.876C122.605 148.876 124.894 148.24 127.438 146.968C127.826 146.735 128.214 146.496 128.602 146.251L126.7 138.163C125.208 138.047 123.715 137.579 122.223 136.76L116.277 147.976C117.732 148.576 119.163 148.876 120.569 148.876Z" fill="#1BB0EE"/>
</svg>
