<?xml version="1.0" encoding="utf-8"?>
<!-- Generator: Adobe Illustrator 22.1.0, SVG Export Plug-In . SVG Version: 6.00 Build 0)  -->
<svg version="1.1" id="Layer_1" xmlns="http://www.w3.org/2000/svg" xmlns:xlink="http://www.w3.org/1999/xlink" x="0px" y="0px"
	 viewBox="0 0 20 24" style="enable-background:new 0 0 20 24;" xml:space="preserve">
<style type="text/css">
	.st0{fill:none;}
	.st1{fill:#E75324;}
	.st2{fill:#D82229;}
	.st3{font-family:'Arial-BoldMT';}
	.st4{font-size:8px;}
</style>
<g id="PDF_Icons" transform="translate(-4205 -3297)">
	<g id="Group_926" transform="translate(4129 -220)">
		<g id="Path_513">
			<path class="st0" d="M78,3517h10.9c0,0,7.1,6,7.1,6.1v15.9c0,1.1-0.9,2-2,2H78c-1.1,0-2-0.9-2-2v-20C76,3517.9,76.9,3517,78,3517
				z"/>
			<path class="st1" d="M78,3518c-0.6,0-1,0.4-1,1v20c0,0.6,0.4,1,1,1h16c0.6,0,1-0.4,1-1v-15.5c-1-0.9-4.3-3.7-5.7-4.8l-0.8-0.7
				l0,0H78 M78,3517h10.9c0,0,7.1,6,7.1,6.1v15.9c0,1.1-0.9,2-2,2H78c-1.1,0-2-0.9-2-2v-20C76,3517.9,76.9,3517,78,3517z"/>
		</g>
		<text transform="matrix(1 0 0 1 78.749 3538)" class="st2 st3 st4">XLS</text>
	</g>
	<path id="Path_514" class="st1" d="M4218,3297c0.1,0,7.1,6,7,6c0,0.6-0.4,1-1,1h-5c-1.1,0-2-0.9-2-2v-4
		C4217,3297.4,4217.4,3297,4218,3297z"/>
</g>
</svg>
