<?xml version="1.0" encoding="UTF-8"?>
<!DOCTYPE svg PUBLIC "-//W3C//DTD SVG 1.1//EN" "http://www.w3.org/Graphics/SVG/1.1/DTD/svg11.dtd">
<svg xmlns="http://www.w3.org/2000/svg" version="1.1" width="30px" height="30px" style="shape-rendering:geometricPrecision; text-rendering:geometricPrecision; image-rendering:optimizeQuality; fill-rule:evenodd; clip-rule:evenodd" xmlns:xlink="http://www.w3.org/1999/xlink">
<g><path style="opacity:0.973" fill="#e6ad1d" d="M -0.5,-0.5 C 9.5,-0.5 19.5,-0.5 29.5,-0.5C 29.5,9.5 29.5,19.5 29.5,29.5C 19.5,29.5 9.5,29.5 -0.5,29.5C -0.5,19.5 -0.5,9.5 -0.5,-0.5 Z"/></g>
<g><path style="opacity:1" fill="#fefaf7" d="M 6.5,4.5 C 13.1667,4.5 19.8333,4.5 26.5,4.5C 26.5,11.1667 26.5,17.8333 26.5,24.5C 19.8333,24.5 13.1667,24.5 6.5,24.5C 6.5,21.5 6.5,18.5 6.5,15.5C 9.51838,15.3354 12.5184,15.502 15.5,16C 13.0629,17.2788 12.5629,18.7788 14,20.5C 16.0176,18.6499 17.8509,16.6499 19.5,14.5C 18.0792,11.6569 16.0792,10.3236 13.5,10.5C 13.9767,11.4776 14.6433,12.3109 15.5,13C 12.5184,13.498 9.51838,13.6646 6.5,13.5C 6.5,10.5 6.5,7.5 6.5,4.5 Z"/></g>
<g><path style="opacity:1" fill="#f4b28f" d="M 6.5,4.5 C 13.3134,3.50881 20.3134,3.17547 27.5,3.5C 27.5,10.8333 27.5,18.1667 27.5,25.5C 20.3134,25.8245 13.3134,25.4912 6.5,24.5C 13.1667,24.5 19.8333,24.5 26.5,24.5C 26.5,17.8333 26.5,11.1667 26.5,4.5C 19.8333,4.5 13.1667,4.5 6.5,4.5 Z"/></g>
<g><path style="opacity:1" fill="#fbd6c3" d="M 0.5,12.5 C 1.5,12.5 2.5,12.5 3.5,12.5C 3.5,13.5 3.5,14.5 3.5,15.5C 2.5,15.5 1.5,15.5 0.5,15.5C 0.5,14.5 0.5,13.5 0.5,12.5 Z"/></g>
</svg>
