<?xml version="1.0"?>
<svg xmlns="http://www.w3.org/2000/svg" xmlns:xlink="http://www.w3.org/1999/xlink" version="1.1" viewBox="0 0 192 192" width="48px" height="48px"><g fill="none" fill-rule="nonzero" stroke="none" stroke-width="1" stroke-linecap="butt" stroke-linejoin="miter" stroke-miterlimit="10" stroke-dasharray="" stroke-dashoffset="0" font-family="none" font-weight="none" font-size="none" text-anchor="none" style="mix-blend-mode: normal"><path d="M0,192v-192h192v192z" fill="none"/><g id="Layer_1"><path d="M124,28.008l52,6.744l-42.816,41.248z" fill="#e76d24"/><path d="M68,164l-52,-6.744l42.816,-41.256z" fill="#e76d24"/><path d="M32,96c0,-35.348 28.652,-64 64,-64c4.096,0 8.084,0.424 11.968,1.16l2.772,-15.46c-4.64,-1.252 -9.692,-1.68 -14.74,-1.68c-44.212,0 -80,35.788 -80,80c0,19.376 6.744,37.896 19.376,52.204l12.148,-10.516c-9.652,-11.208 -15.524,-25.76 -15.524,-41.708z" fill="#ff6f00"/><path d="M157.892,45.068l-12.572,10.148c9.168,11.072 14.68,25.284 14.68,40.784c0,35.348 -28.652,64 -64,64c-4.116,0 -8.132,-0.424 -12.032,-1.168l-2.704,15.084c5.048,0.84 10.1,1.268 14.736,1.268c44.212,0 80,-35.788 80,-80c0,-17.684 -6.316,-35.792 -18.108,-50.116z" fill="#ff6f00"/></g></g></svg>
